<?xml version="1.0" encoding="UTF-8"?>
<!-- Created with Inkscape (http://www.inkscape.org/) -->
<svg width="1e3" height="1e3" version="1.1" viewBox="0 0 265 265" xmlns="http://www.w3.org/2000/svg">
 <g stroke="#fff">
  <path transform="matrix(.968 -.0138 .0134 1 105 102)" d="m136 63.3-54.1-32.4 55.1-30.6-0.52 31.5zm-54.6-0.583-54.1-32.4 55.1-30.6-0.52 31.5zm-54.6-0.889-54.1-32.4 55.1-30.6-0.52 31.5zm-109-33.1 219 3.03-1.46 106-219-3.03zm1.46-106 54.7 0.756-2.93 212-54.7-0.756z" fill="#6abf40" stroke-width="8.07" style="paint-order:stroke fill markers"/>
  <path transform="matrix(.934 .0976 -.0847 1.08 62.5 25.8)" d="m126 170-70.7 6.16 30-64.3 20.3 29.1z" fill="#fff" stroke-width="7.94" style="paint-order:stroke fill markers"/>
 </g>
</svg>
